<svg width="40" height="40" viewBox="0 0 40 40" fill="none" xmlns="http://www.w3.org/2000/svg">
<g clip-path="url(#clip0_2491_2482)">
<path d="M26.0537 35.5536H25.7783C21.725 35.5536 17.6716 35.5536 13.6183 35.5536C13.2458 35.5536 13.3126 35.4994 13.2649 35.8611C13.0101 37.8174 11.6426 39.3659 9.73055 39.8502C7.00657 40.5417 4.25075 38.6666 3.88139 35.8706C3.86866 35.7735 3.85274 35.6763 3.83363 35.552C3.75562 35.552 3.67761 35.552 3.60119 35.552C3.03284 35.5409 2.46289 35.5568 1.89771 35.5106C0.977513 35.4341 0.152837 34.6073 0.0429858 33.6897C0.0175132 33.473 0.00318482 33.2547 0.00318482 33.0381C7.38975e-07 29.1891 7.39048e-07 25.3385 7.39048e-07 21.488C7.39048e-07 21.4019 -0.0015913 21.3159 0.011145 21.2315C0.0971152 20.6484 0.409155 20.36 0.999802 20.3154C1.09214 20.3091 1.18448 20.3107 1.27682 20.3107C8.37891 20.3107 15.481 20.3107 22.5815 20.3107H22.8537V20.0605C22.8537 17.1292 22.876 14.1995 22.8426 11.2681C22.8298 10.1131 23.6275 8.89438 25.1319 8.88163C25.5411 8.87845 25.9518 8.87845 26.3626 8.87845C27.9499 8.87845 29.5371 8.87845 31.1228 8.87845C31.75 8.87845 32.3582 8.96607 32.9266 9.2608C33.4822 9.54915 33.9089 9.97451 34.2511 10.4875C35.9483 13.0269 37.6374 15.5695 39.3329 18.109C39.7835 18.7829 40 19.5189 39.9984 20.3314C39.992 24.6121 39.9984 28.8912 39.9936 33.1719C39.9936 34.1453 39.6004 34.9164 38.6961 35.3306C38.3713 35.4787 37.9829 35.5265 37.6199 35.5456C36.9863 35.5791 36.351 35.56 35.7158 35.552C35.563 35.5504 35.5136 35.5966 35.4961 35.7464C35.3576 36.8934 34.9087 37.8907 34.0617 38.6952C32.1242 40.5385 29.0898 40.4158 27.2844 38.418C26.5887 37.647 26.1922 36.7437 26.0744 35.7145C26.0697 35.6699 26.0617 35.6253 26.0521 35.5552L26.0537 35.5536ZM1.90567 28.5678C1.90567 28.6363 1.90567 28.6809 1.90567 28.7255C1.90567 30.2342 1.90567 31.7429 1.90567 33.2516C1.90567 33.285 1.90567 33.3185 1.90726 33.3503C1.92637 33.5367 2.02826 33.6387 2.21612 33.6451C2.38806 33.6514 2.56 33.6466 2.73194 33.6466C3.19363 33.6466 3.65373 33.6466 4.10746 33.6466C4.89075 31.5326 6.74547 30.4254 8.65592 30.4779C10.5106 30.5289 12.2667 31.5517 13.0404 33.6403H26.3244C27.1745 31.3988 29.1152 30.4142 30.9015 30.4795C32.6814 30.5448 34.4438 31.4864 35.2685 33.6498C36.0629 33.6498 36.8621 33.6498 37.6629 33.6498C38.0179 33.6498 38.0911 33.5766 38.0911 33.2197C38.0911 30.685 38.0911 28.152 38.0911 25.6173V25.3927C37.9893 25.3927 37.9097 25.3927 37.8316 25.3927C35.3258 25.3927 32.8183 25.3911 30.3124 25.3927C29.4957 25.3927 28.7459 25.1888 28.082 24.6997C27.0726 23.9541 26.6683 22.9138 26.6651 21.6999C26.6571 18.1408 26.6619 14.5818 26.6619 11.0212V10.7822C26.1445 10.7822 25.6557 10.7822 25.167 10.7822C24.8374 10.7822 24.7578 10.8619 24.7578 11.1901C24.7578 13.2946 24.7578 15.3975 24.7578 17.502C24.7578 20.8093 24.7578 24.1182 24.7578 27.4255C24.7578 27.7314 24.7005 28.0182 24.4808 28.2492C24.2324 28.5088 23.914 28.5662 23.5733 28.5662C16.4442 28.5662 9.31503 28.5662 2.18746 28.5662C2.10149 28.5662 2.01712 28.5662 1.90249 28.5662L1.90567 28.5678ZM28.5692 10.7854V10.9622C28.5692 14.6264 28.5692 18.2922 28.5692 21.9564C28.5692 22.7529 29.3031 23.4842 30.0959 23.4842C32.7005 23.4857 35.3067 23.4842 37.9112 23.4842C37.9686 23.4842 38.0243 23.4762 38.0896 23.473C38.0896 22.4184 38.0736 21.3796 38.0959 20.3425C38.1071 19.8343 37.9638 19.4026 37.6852 18.9884C36.2316 16.8201 34.7861 14.6455 33.3373 12.4757C33.081 12.0918 32.8279 11.703 32.5508 11.3334C32.2961 10.9957 31.9315 10.7997 31.5112 10.7918C30.5401 10.7743 29.569 10.7854 28.5676 10.7854H28.5692ZM22.8458 22.2304H1.92159V26.6513H22.8458V22.2304ZM27.9339 35.2286C27.8846 36.7007 29.1948 38.1106 30.7885 38.0978C32.3678 38.0851 33.6462 36.8185 33.6478 35.235C33.6478 33.6339 32.4028 32.3737 30.8203 32.3769C29.2155 32.3785 27.9339 33.6451 27.9339 35.2286ZM5.71383 35.2222C5.6597 36.6959 6.97473 38.1153 8.5795 38.0978C10.1429 38.0819 11.4245 36.8106 11.4277 35.2414C11.4308 33.6514 10.1731 32.3737 8.60338 32.3753C6.99861 32.3753 5.71383 33.6403 5.71383 35.2222Z" fill="#303030"/>
<path d="M11.313 18.3878C11.4452 18.1679 11.5646 17.9943 11.6617 17.8079C11.9212 17.3044 12.0852 16.7787 12.0836 16.1988C12.074 13.6849 12.082 11.1725 12.0788 8.65859C12.0788 7.72343 11.7843 6.88864 11.1475 6.19722C10.5632 5.56316 9.84199 5.15373 8.97433 5.09638C8.18468 5.0454 7.39025 5.05655 6.59901 5.05337C6.4207 5.05337 6.3602 5.01035 6.36338 4.82236C6.37294 3.98916 6.36338 3.15596 6.36816 2.32276C6.37294 1.28405 7.02726 0.377565 7.9793 0.113107C8.23085 0.0430102 8.4999 0.00636848 8.7594 0.00636848C12.0247 -3.98821e-06 15.2915 -0.00319022 18.5568 0.00636848C19.3433 0.0079616 20.0088 0.289943 20.4991 0.938342C20.8096 1.34937 20.929 1.82252 20.9306 2.3132C20.9401 6.87749 20.9401 11.4402 20.9321 16.0045C20.9321 16.7325 20.6902 17.3729 20.1186 17.8684C19.7891 18.1536 19.4054 18.2922 18.9883 18.3447C18.7208 18.3782 18.4486 18.3862 18.1779 18.3862C15.9825 18.3894 13.7887 18.3878 11.5932 18.3878H11.3162H11.313ZM13.6502 3.80277C13.6502 3.80277 13.6502 3.80755 13.6502 3.81073C13.8619 3.81073 14.0736 3.8187 14.2838 3.81073C14.7948 3.78843 15.2088 3.39334 15.2486 2.90266C15.2852 2.44862 14.9461 1.97706 14.4541 1.9213C13.9399 1.86394 13.4098 1.8512 12.8971 1.90536C12.3654 1.96112 12.0358 2.38967 12.0486 2.86601C12.0613 3.34236 12.4243 3.73745 12.9385 3.79958C13.1725 3.82826 13.4129 3.80436 13.6502 3.80436V3.80277Z" fill="#EA3788"/>
<path d="M0.0175131 12.3275C0.0175131 11.1168 0.00796089 9.90601 0.0206972 8.69683C0.0286574 7.96081 0.292936 7.32993 0.875623 6.85518C1.31025 6.49992 1.82129 6.35973 2.36896 6.35813C4.39244 6.35176 6.41592 6.34379 8.43781 6.36132C9.37393 6.36928 10.1238 6.76916 10.5345 7.63581C10.6858 7.95284 10.7622 8.33519 10.7654 8.68727C10.7845 11.1279 10.7829 13.5686 10.7717 16.0092C10.7686 16.7373 10.5298 17.3777 9.95502 17.8716C9.62388 18.1568 9.24179 18.2938 8.82308 18.3463C8.55562 18.3798 8.28338 18.3878 8.01274 18.3878C6.14846 18.391 4.28418 18.3941 2.4199 18.3878C1.77353 18.3846 1.1797 18.2109 0.705274 17.7394C0.318409 17.357 0.0716425 16.8966 0.0589062 16.3534C0.0286574 15.1442 0.0286574 13.935 0.0175131 12.7242C0.0175131 12.592 0.0175131 12.4598 0.0175131 12.3275ZM5.39542 10.1609V10.1641C5.59284 10.1641 5.79184 10.1673 5.98925 10.1641C6.52577 10.1513 6.95244 9.76581 6.99542 9.25601C7.03522 8.7972 6.69294 8.32404 6.18507 8.26828C5.66448 8.21093 5.12796 8.20774 4.60896 8.26828C4.08358 8.32882 3.76199 8.77808 3.79702 9.25283C3.83363 9.73714 4.22687 10.1211 4.7411 10.1577C4.95761 10.1736 5.17731 10.1609 5.39542 10.1609Z" fill="#EA3788"/>
<path d="M28.5946 27.279C28.964 27.2965 29.3349 27.2901 29.6995 27.3379C30.1341 27.3937 30.4127 27.725 30.4621 28.1759C30.5019 28.5503 30.236 28.9788 29.8603 29.1111C29.7075 29.1652 29.5387 29.1955 29.3763 29.1987C28.8287 29.2098 28.2794 29.2066 27.7317 29.2003C27.4038 29.1971 27.1077 29.1031 26.8848 28.8402C26.4533 28.3288 26.673 27.5625 27.3146 27.3714C27.4706 27.3252 27.6378 27.3061 27.8018 27.2981C28.0661 27.2869 28.3303 27.2949 28.5946 27.2949C28.5946 27.2885 28.5946 27.2837 28.5946 27.2774V27.279Z" fill="#303030"/>
</g>
<defs>
<clipPath id="clip0_2491_2482">
<rect width="40" height="40" fill="white"/>
</clipPath>
</defs>
</svg>
