<svg width="40" height="40" viewBox="0 0 40 40" fill="none" xmlns="http://www.w3.org/2000/svg">
<g clip-path="url(#clip0_2491_2449)">
<path d="M27.314 10.8058C27.7856 10.8058 28.2275 10.7866 28.6695 10.81C29.6064 10.8568 30.4095 11.611 30.6029 12.6032C30.7197 13.2044 30.7898 13.8185 30.8727 14.4261C30.9768 15.1846 31.0936 15.9431 31.1722 16.7058C31.2339 17.3134 30.7601 17.8021 30.1907 17.766C29.7211 17.7362 29.3812 17.3899 29.3026 16.8503C29.1284 15.6414 28.9584 14.4303 28.7842 13.2214C28.7693 13.1237 28.7799 13.0111 28.7311 12.9325C28.6737 12.8369 28.5717 12.7073 28.4804 12.7009C28.1001 12.6754 27.7176 12.6903 27.3118 12.6903C27.3118 13.2639 27.314 13.8248 27.3118 14.3836C27.3118 14.6067 27.3161 14.8361 27.2778 15.055C27.1886 15.5798 26.7594 15.9112 26.2687 15.8623C25.797 15.8135 25.4124 15.38 25.4082 14.8765C25.4039 14.2285 25.4082 13.5805 25.4082 12.9304C25.4082 12.8581 25.4082 12.7859 25.4082 12.7009H14.6109C14.6109 13.0111 14.6152 13.3213 14.6109 13.6294C14.6046 14.1053 14.6258 14.5833 14.5727 15.055C14.5132 15.5819 14.067 15.9091 13.5699 15.8623C13.0961 15.8177 12.7094 15.3864 12.7073 14.8808C12.703 14.1605 12.7073 13.4382 12.7073 12.6967C12.293 12.6967 11.8851 12.6797 11.4814 12.7052C11.3093 12.7158 11.2689 12.9091 11.2477 13.06C11.2009 13.3872 11.1669 13.7165 11.1223 14.0437C10.9693 15.1506 10.8143 16.2554 10.6613 17.3602C10.5104 18.4522 10.3596 19.5464 10.2066 20.6385C10.1641 20.9444 10.1089 21.2482 10.0558 21.5797C10.1981 21.5797 10.315 21.5797 10.4339 21.5797C11.0352 21.5797 11.6386 21.5797 12.2399 21.5797C13.6145 21.5797 14.5323 22.4465 14.6109 23.8232C14.6173 23.9146 14.6152 24.0081 14.6152 24.1016C14.6152 27.86 14.6088 31.6184 14.6194 35.3769C14.6237 36.3712 14.3772 37.2571 13.7058 38.005C13.691 38.022 13.6825 38.0475 13.657 38.0964H13.9119C19.6802 38.0964 25.4486 38.0964 31.219 38.0964C31.3571 38.0964 31.4973 38.1091 31.6312 38.1346C32.054 38.2132 32.3387 38.5404 32.3854 38.9908C32.4236 39.3563 32.1623 39.7833 31.7884 39.9086C31.5993 39.9724 31.3868 40 31.1871 40C21.8197 40.0043 12.4523 40.0043 3.08493 40.0021C2.97233 40.0021 2.86185 39.9894 2.74924 39.9745C2.50066 39.9426 2.29458 39.8237 2.14585 39.6261C1.60833 38.9122 1.0623 38.2068 0.552397 37.476C0.15297 36.9002 0.0106216 36.2288 0.00849697 35.5362C0.00424775 31.6184 0.00424775 27.7028 0.00849697 23.785C0.00849697 22.6759 0.85834 21.7347 1.95676 21.6158C2.17347 21.5924 2.39231 21.5797 2.60902 21.5797C4.38094 21.5775 6.15499 21.5754 7.92691 21.5797C8.099 21.5797 8.17124 21.5542 8.19886 21.3544C8.47931 19.2383 8.77038 17.1243 9.06145 15.0082C9.16343 14.2625 9.27816 13.5168 9.37802 12.771C9.51399 11.7512 10.2916 10.8036 11.6301 10.7803C11.9807 10.7739 12.3291 10.7803 12.7094 10.7803V10.5572C12.7094 9.5055 12.7179 8.45382 12.7094 7.40214C12.6945 5.7067 13.2044 4.18973 14.2391 2.85123C15.4247 1.31939 16.9756 0.33782 18.8878 0.0828673C21.9068 -0.320808 24.3416 0.739371 26.0817 3.26765C26.9337 4.50418 27.3161 5.90217 27.3203 7.40214C27.3225 8.44745 27.3203 9.49276 27.3203 10.5381V10.8058H27.314ZM1.9079 29.7955C1.9079 31.7268 1.91427 33.6581 1.90365 35.5893C1.90152 36.0079 2.01838 36.3669 2.26483 36.6941C2.47092 36.9682 2.677 37.2444 2.88522 37.5185C3.02544 37.7033 3.12955 37.9583 3.31651 38.0496C3.50773 38.1452 3.77968 38.09 4.01551 38.09C6.38232 38.09 8.75126 38.09 11.1181 38.0879C11.1988 38.0879 11.3135 38.0624 11.3582 38.005C11.713 37.5525 12.0571 37.0914 12.3971 36.6283C12.6138 36.3308 12.7094 35.9972 12.7073 35.6254C12.703 31.7417 12.7052 27.86 12.7052 23.9762C12.7052 23.5895 12.5989 23.4833 12.2101 23.4833C8.91698 23.4833 5.62171 23.4833 2.32857 23.4833C1.98438 23.4833 1.9079 23.5598 1.9079 23.8997C1.9079 25.865 1.9079 27.8281 1.9079 29.7934V29.7955ZM25.4061 10.7718C25.4061 10.6825 25.4061 10.6103 25.4061 10.5381C25.4061 9.45239 25.4146 8.36671 25.4061 7.28316C25.3912 5.68758 24.809 4.34696 23.615 3.26553C21.8707 1.68482 19.1895 1.46811 17.3453 2.59628C15.5989 3.66496 14.6364 5.20742 14.6152 7.28529C14.6046 8.37734 14.6152 9.46939 14.6152 10.5614C14.6152 10.6315 14.6152 10.6995 14.6152 10.7718H25.4124H25.4061Z" fill="#303030"/>
<path d="M26.8848 19.0322C28.7608 19.0152 30.3479 19.5995 31.7841 20.6469C33.3776 21.8112 34.3039 23.3962 34.7161 25.2998C34.8265 25.8119 34.9137 26.3451 34.9073 26.8657C34.8903 28.4166 34.5355 29.8869 33.6814 31.2084C33.6601 31.2424 33.6389 31.2742 33.6155 31.3082C33.4682 31.5164 33.4852 31.7069 33.6665 31.8797C33.8195 32.0263 33.9725 32.1729 34.1191 32.3238C34.2295 32.4385 34.3273 32.4449 34.4356 32.3238C34.4972 32.2537 34.5673 32.1942 34.6332 32.1283C35.09 31.68 35.6254 31.6694 36.0907 32.1049C36.471 32.4619 36.8492 32.8231 37.2189 33.1906C37.903 33.8726 38.6062 34.5376 39.25 35.2536C40.4504 36.59 40.1147 38.6891 38.5722 39.6112C37.6098 40.187 36.2904 40.051 35.4172 39.3265C35.158 39.1119 34.9285 38.8633 34.6885 38.6254C33.8684 37.8095 33.0483 36.9915 32.2303 36.1714C32.1602 36.1013 32.0901 36.0312 32.0284 35.9526C31.7182 35.5702 31.7267 35.1176 32.0539 34.7437C32.1665 34.6141 32.2919 34.4951 32.413 34.374C32.4937 34.2933 32.5044 34.2232 32.4194 34.1382C32.2027 33.9257 31.986 33.7112 31.7735 33.4944C31.6503 33.3691 31.5483 33.4435 31.4421 33.5178C30.7452 34.0107 29.9824 34.374 29.1602 34.5929C26.8805 35.2005 24.7155 34.9328 22.7205 33.6495C21.1589 32.6446 20.0541 31.2424 19.455 29.4832C19.2447 28.8649 19.1363 28.1999 19.0747 27.5477C18.8814 25.4825 19.4933 23.6278 20.7531 22.0152C21.8303 20.6363 23.2602 19.727 24.9684 19.2766C25.6249 19.1045 26.2877 19.0195 26.8805 19.028L26.8848 19.0322ZM32.4109 27.0633C32.4024 23.8976 29.9569 21.6051 27.0569 21.569C24.0378 21.5308 21.5817 23.9911 21.5817 26.9825C21.5817 29.9442 24.0378 32.4066 27.0101 32.3896C30.0164 32.3727 32.3854 29.9272 32.413 27.0633H32.4109Z" fill="#EA3788"/>
<path d="M5.71947 27.7176C5.71947 28.1213 5.71947 28.525 5.71947 28.9287C5.72372 29.7042 6.3611 30.3798 7.15995 30.4605C7.93119 30.537 8.68755 30.0016 8.84902 29.258C8.87876 29.1241 8.89151 28.9839 8.89151 28.8458C8.89576 28.0512 8.89151 27.2587 8.89363 26.4641C8.89576 25.916 9.15284 25.5463 9.6075 25.4252C10.0664 25.302 10.5338 25.5335 10.7017 25.9797C10.7527 26.1136 10.793 26.2623 10.793 26.4025C10.793 27.3288 10.81 28.2552 10.759 29.1794C10.6847 30.469 10.0112 31.4017 8.88089 31.9924C7.19607 32.8741 5.03959 32.1623 4.19825 30.469C3.9348 29.9379 3.82644 29.3685 3.81582 28.7821C3.80307 28.0087 3.80945 27.2354 3.8137 26.4599C3.81794 25.9139 4.07927 25.5442 4.53394 25.4231C5.0056 25.2977 5.49426 25.5548 5.63448 26.0222C5.69185 26.2155 5.70885 26.4238 5.71522 26.6256C5.72797 26.9889 5.71947 27.3522 5.71947 27.7176Z" fill="#303030"/>
<path d="M30.452 26.9719C30.4032 28.9223 28.9287 30.5051 26.9974 30.4414C24.9196 30.3734 23.5024 28.8288 23.5449 26.9294C23.5938 24.7729 25.2489 23.5024 27.008 23.5194C29.0052 23.5407 30.4414 25.1001 30.452 26.9719Z" fill="#EA3788"/>
</g>
<defs>
<clipPath id="clip0_2491_2449">
<rect width="39.9766" height="40" fill="white"/>
</clipPath>
</defs>
</svg>
